PathFileType	4	(X/Y/Z)	/Users/itak/Documents/Research/Walk-IL/dataset/trc/00033_00004.trc
DataRate	CameraRate	NumFrames	NumMarkers	Units	OrigDataRate	OrigDataStartFrame	OrigNumFrames
100.000000	100.000000	4	53	mm	100.000000	103	829
Frame#	Time	RPSI			LPSI			L3			STRN			T10			C7			CLAV			RBAK			LBAK			LSHO			LUPA			LAEL			LAOL			LWTS			LWPS			LFRA			LIFD			LHPS			LHTS			RSHO			RUPA			RAEL			RAOL			RWTS			RWPS			RFRA			RIFD			RHTS			RHPS			RBHD			LFHD			RFHD			LBHD			LHIP			RHIP			RASI			LASI			LKNE			LTHI			LANK			LTIP			LTOE			LMT1			LMT5			LHEE			RKNE			RTHI			RANK			RTIP			RTOE			RMT1			RMT5			RHEE			
		X1	Y1	Z1	X2	Y2	Z2	X3	Y3	Z3	X4	Y4	Z4	X5	Y5	Z5	X6	Y6	Z6	X7	Y7	Z7	X8	Y8	Z8	X9	Y9	Z9	X10	Y10	Z10	X11	Y11	Z11	X12	Y12	Z12	X13	Y13	Z13	X14	Y14	Z14	X15	Y15	Z15	X16	Y16	Z16	X17	Y17	Z17	X18	Y18	Z18	X19	Y19	Z19	X20	Y20	Z20	X21	Y21	Z21	X22	Y22	Z22	X23	Y23	Z23	X24	Y24	Z24	X25	Y25	Z25	X26	Y26	Z26	X27	Y27	Z27	X28	Y28	Z28	X29	Y29	Z29	X30	Y30	Z30	X31	Y31	Z31	X32	Y32	Z32	X33	Y33	Z33	X34	Y34	Z34	X35	Y35	Z35	X36	Y36	Z36	X37	Y37	Z37	X38	Y38	Z38	X39	Y39	Z39	X40	Y40	Z40	X41	Y41	Z41	X42	Y42	Z42	X43	Y43	Z43	X44	Y44	Z44	X45	Y45	Z45	X46	Y46	Z46	X47	Y47	Z47	X48	Y48	Z48	X49	Y49	Z49	X50	Y50	Z50	X51	Y51	Z51	X52	Y52	Z52	X53	Y53	Z53	

104	1.03	347.3572082519531	1070.197021484375	946.6880493164062	355.8222961425781	1059.604248046875	1111.201171875	359.8345947265625	1121.630737304688	1039.983642578125	150.2632751464844	1319.886108398438	1036.732666015625	396.2757568359375	1264.121215820312	1049.421875	353.8365478515625	1533.4423828125	1064.660766601562	194.9052734375	1444.062255859375	1045.854614257812	408.5915832519531	1396.111328125	984.9881591796875	364.8056640625	1489.6494140625	1161.454223632812	259.446533203125	1497.34521484375	1229.091064453125	284.3134460449219	1370.9345703125	1307.137573242188	282.8850708007812	1153.458984375	1330.482421875	343.4651184082031	1142.112670898438	1244.278564453125	198.8999938964844	900.3273315429688	1263.492309570312	270.666259765625	886.1890258789062	1313.904541015625	268.4579162597656	1037.088500976562	1334.92138671875	177.8194427490234	715.5755615234375	1237.193725585938	237.6237182617188	796.8505859375	1308.45751953125	177.8152465820312	806.0609741210938	1270.88916015625	291.2199096679688	1523.21533203125	884.2566528320312	310.2152709960938	1455.06298828125	813.3726806640625	349.700439453125	1186.67626953125	787.5631713867188	339.5467834472656	1158.192138671875	882.7586669921875	215.5067596435547	928.1572265625	799.0902709960938	286.0809326171875	913.21240234375	741.91162109375	338.2507019042969	1110.8310546875	769.4017333984375	195.88623046875	743.7581176757812	817.1486206054688	182.3204040527344	819.3976440429688	782.6058959960938	243.0696868896484	812.2534790039062	739.02490234375	281.6070251464844	1718.472900390625	1129.042114257812	137.9659118652344	1728.591796875	964.8372192382812	114.0910034179688	1731.361206054688	1060.473999023438	310.3276062011719	1711.720092773438	987.8102416992188	260.2145385742188	959.9464111328125	1220.472534179688	228.11083984375	960.5151977539062	847.1590576171875	128.350830078125	994.4239501953125	924.4093017578125	141.6663360595703	1007.559326171875	1161.116577148438	227.7125701904297	520.33154296875	1176.267700195312	246.8423461914062	654.4385375976562	1210.131591796875	338.3810729980469	40.83575057983398	1176.71484375	313.1849365234375	288.1905822753906	1193.581909179688	112.3822250366211	40.963134765625	1135.489135742188	169.8544006347656	48.87698745727539	1112.4306640625	217.3636322021484	38.48427963256836	1209.209716796875	401.1756286621094	47.01607131958008	1117.359985351562	227.3632659912109	525.6802368164062	886.7794189453125	206.4545288085938	793.872314453125	846.408447265625	348.7494201660156	44.38379287719727	899.1702270507812	255.4827423095703	402.3666381835938	883.6718139648438	114.4965591430664	41.18208312988281	935.364990234375	177.6099090576172	45.27103042602539	966.1795654296875	199.8716125488281	43.08549880981445	873.2711791992188	401.7125244140625	44.60447311401367	946.4364013671875	
105	1.04	347.5374145507812	1070.377563476562	946.9195556640625	356.135009765625	1059.905151367188	1111.444213867188	359.9699096679688	1121.920043945312	1040.180786132812	150.0741729736328	1319.881103515625	1036.972290039062	396.1798095703125	1264.44140625	1049.515258789062	353.3456420898438	1533.70751953125	1064.762084960938	194.6542663574219	1444.065551757812	1046.104736328125	408.22900390625	1396.434692382812	985.0675659179688	364.4979553222656	1489.920166015625	1161.562377929688	259.1029968261719	1497.425170898438	1229.2666015625	284.2608642578125	1371.10986328125	1307.268432617188	283.0943298339844	1153.658203125	1330.625732421875	343.5830383300781	1142.366088867188	1244.374267578125	199.3412017822266	900.3654174804688	1263.688598632812	271.0955505371094	886.3436889648438	1314.03466796875	268.7318725585938	1037.259887695312	1335.057373046875	178.3354797363281	715.6298828125	1237.38427734375	237.9954833984375	796.8756103515625	1308.578125	178.2516021728516	806.1084594726562	1271.164916992188	290.6044921875	1523.413452148438	884.3890991210938	309.61181640625	1455.249755859375	813.5135498046875	349.2677001953125	1186.863647460938	787.6412353515625	339.2513122558594	1158.374267578125	882.8367309570312	215.3264465332031	928.2598266601562	799.2496337890625	285.8577880859375	913.3880004882812	741.9912109375	337.85693359375	1111.03125	769.4623413085938	195.9440155029297	743.8298950195312	817.2957763671875	182.2121887207031	819.47216796875	782.7875366210938	242.96630859375	812.3890991210938	739.126953125	280.8251342773438	1718.6240234375	1129.233642578125	137.4067993164062	1728.61376953125	964.8167114257812	113.4530029296875	1731.364135742188	1060.483032226562	309.8330993652344	1711.864501953125	988.0748901367188	260.6650695800781	960.2183837890625	1220.87744140625	228.6448822021484	960.4995727539062	847.4674072265625	128.7746124267578	994.335205078125	924.7474365234375	142.0425415039062	1007.681274414062	1161.459106445312	225.8953704833984	520.5534057617188	1176.442626953125	245.7426910400391	654.5488891601562	1210.503784179688	338.4406127929688	40.85633087158203	1176.76953125	311.7582702636719	288.0150146484375	1193.690795898438	112.5289840698242	41.05754852294922	1135.273071289062	169.9819641113281	48.89229202270508	1112.261108398438	217.3670501708984	38.68088150024414	1209.015625	401.2747192382812	47.00072479248047	1117.391235351562	226.3009948730469	525.6854858398438	886.9966430664062	206.5263061523438	793.8971557617188	846.7372436523438	348.7746887207031	44.27937698364258	899.0733642578125	254.3650054931641	402.1353454589844	883.7804565429688	114.5635147094727	41.24890899658203	935.3541870117188	177.6337738037109	45.28507232666016	966.197265625	199.8571014404297	43.1240348815918	873.29638671875	401.8293762207031	44.46164703369141	946.2285766601562	
106	1.05	347.7200012207031	1070.562255859375	947.1768798828125	356.4255065917969	1060.21826171875	1111.71533203125	360.1130676269531	1122.22607421875	1040.398315429688	149.8500518798828	1319.880737304688	1037.224731445312	396.0480346679688	1264.785278320312	1049.618286132812	352.7788391113281	1533.988403320312	1064.86962890625	194.2885589599609	1444.100952148438	1046.353271484375	407.7974548339844	1396.780883789062	985.1466064453125	364.1454162597656	1490.2041015625	1161.673828125	258.7073974609375	1497.522338867188	1229.441772460938	284.1785278320312	1371.302612304688	1307.410766601562	283.2794799804688	1153.877197265625	1330.77685546875	343.6870422363281	1142.6455078125	1244.479614257812	199.7846984863281	900.4021606445312	1263.868286132812	271.5419921875	886.5197143554688	1314.152099609375	269.0091247558594	1037.447143554688	1335.198608398438	178.8374633789062	715.7108764648438	1237.536865234375	238.3900756835938	796.9139404296875	1308.663208007812	178.6852264404297	806.1721801757812	1271.458129882812	289.9317626953125	1523.627807617188	884.5364379882812	308.9530334472656	1455.462280273438	813.6539916992188	348.8061218261719	1187.092407226562	787.7141723632812	338.9353637695312	1158.59716796875	882.911865234375	215.1175231933594	928.3899536132812	799.4235229492188	285.6026611328125	913.590087890625	742.0792236328125	337.4400329589844	1111.25927734375	769.5179443359375	195.9765625	743.9376831054688	817.479248046875	182.0738830566406	819.579833984375	783.0072021484375	242.8374786376953	812.5552978515625	739.2564086914062	279.9837036132812	1718.774169921875	1129.435302734375	136.8088226318359	1728.641845703125	964.816162109375	112.7533187866211	1731.379028320312	1060.484741210938	309.2739868164062	1712.013793945312	988.3512573242188	261.0894165039062	960.4848022460938	1221.317626953125	229.1794281005859	960.479248046875	847.814697265625	129.1873931884766	994.2581787109375	925.1030883789062	142.3876953125	1007.802917480469	1161.793701171875	223.75244140625	520.702392578125	1176.5859375	244.4455413818359	654.6311645507812	1210.83447265625	338.4895935058594	40.90538024902344	1176.79296875	310.1582641601562	287.8141784667969	1193.746215820312	112.6726837158203	41.16429138183594	1134.864868164062	170.1439971923828	48.90901184082031	1111.95751953125	217.3379821777344	38.92451477050781	1208.724365234375	401.4002380371094	46.97076034545898	1117.44677734375	225.16552734375	525.6633911132812	887.2527465820312	206.5422058105469	793.9238891601562	847.122314453125	348.7940368652344	44.19293975830078	898.9846801757812	253.1799621582031	401.9053344726562	883.9202270507812	114.6372146606445	41.31747817993164	935.3392944335938	177.6548919677734	45.29574584960938	966.2189331054688	199.8432922363281	43.16473007202148	873.3294067382812	401.9474487304688	44.32973480224609	946.0192260742188	
107	1.06	347.8994445800781	1070.74462890625	947.4662475585938	356.6817016601562	1060.532592773438	1112.017578125	360.2545166015625	1122.536743164062	1040.638061523438	149.5831756591797	1319.879516601562	1037.493896484375	395.8748779296875	1265.143798828125	1049.733154296875	352.1406555175781	1534.275024414062	1064.98193359375	193.8170166015625	1444.162109375	1046.600952148438	407.2951049804688	1397.141845703125	985.223876953125	363.7350463867188	1490.497436523438	1161.787719726562	258.2614440917969	1497.64306640625	1229.617919921875	284.0614318847656	1371.508178710938	1307.566772460938	283.4391784667969	1154.10693359375	1330.936157226562	343.7832946777344	1142.94287109375	1244.597045898438	200.2146759033203	900.4406127929688	1264.028198242188	271.9960327148438	886.709716796875	1314.259887695312	269.2892456054688	1037.643798828125	1335.34716796875	179.32958984375	715.8114624023438	1237.665771484375	238.8253784179688	796.9627075195312	1308.717163085938	179.1127166748047	806.249755859375	1271.759155273438	289.1983032226562	1523.846923828125	884.6997680664062	308.2379455566406	1455.693359375	813.795166015625	348.3204956054688	1187.357055664062	787.779296875	338.6018981933594	1158.8564453125	882.984130859375	214.8748321533203	928.5404663085938	799.6083984375	285.3097229003906	913.8099365234375	742.17578125	337.0007629394531	1111.508544921875	769.5681762695312	195.9676666259766	744.0779418945312	817.69384765625	181.8954467773438	819.712890625	783.2537841796875	242.6816864013672	812.7457275390625	739.4151611328125	279.0892028808594	1718.91455078125	1129.651977539062	136.1674041748047	1728.67138671875	964.8389282226562	111.9865264892578	1731.402465820312	1060.481689453125	308.6427307128906	1712.160400390625	988.6386108398438	261.4782409667969	960.7278442382812	1221.791015625	229.6490173339844	960.4539184570312	848.189453125	129.5810089111328	994.1828002929688	925.4830322265625	142.6989593505859	1007.910705566406	1162.131469726562	221.3234558105469	520.7695922851562	1176.696899414062	242.9677276611328	654.67333984375	1211.124877929688	338.5146484375	40.98415756225586	1176.780029296875	308.4057006835938	287.586669921875	1193.744018554688	112.8173980712891	41.29937362670898	1134.190673828125	170.3488922119141	48.94026565551758	1111.457153320312	217.2454223632812	39.22036361694336	1208.291748046875	401.5582885742188	46.92216110229492	1117.541748046875	224.0050201416016	525.6140747070312	887.548828125	206.5033721923828	793.9503784179688	847.55126953125	348.8074645996094	44.12591934204102	898.907470703125	251.97900390625	401.6877136230469	884.0911254882812	114.7157363891602	41.38578033447266	935.3218994140625	177.6734466552734	45.30323028564453	966.2455444335938	199.8307037353516	43.2058219909668	873.3710327148438	402.0550842285156	44.21495819091797	945.8218994140625	
